<mxfile host="app.diagrams.net" modified="2023-06-25T10:22:25.500Z" agent="Mozilla/5.0 (Macintosh; Intel Mac OS X 10_15_7) AppleWebKit/537.36 (KHTML, like Gecko) Chrome/114.0.0.0 Safari/537.36" version="21.3.7" etag="FpY-VP93olmYhc-jUMLP" type="github">
  <diagram name="第 1 页" id="L_vSuMCrheH9UZkfo6jQ">
    <mxGraphModel>
      <root>
        <mxCell id="0" />
        <mxCell id="1" parent="0" />
      </root>
    </mxGraphModel>
  </diagram>
</mxfile>
